<svg width="44" height="48" viewBox="0 0 44 48" fill="none" xmlns="http://www.w3.org/2000/svg">
<g filter="url(#filter0_d_3_845)">
<path d="M26.3953 22.6798C26.5857 22.8798 26.9022 22.8875 27.1022 22.6971C27.3021 22.5066 27.3098 22.1901 27.1194 21.9902L26.3953 22.6798ZM22.3621 16.995C22.1717 16.7951 21.8552 16.7873 21.6552 16.9778C21.4552 17.1682 21.4475 17.4847 21.638 17.6847L22.3621 16.995ZM22.3621 17.6847C22.5526 17.4847 22.5448 17.1682 22.3449 16.9778C22.1449 16.7873 21.8284 16.7951 21.638 16.995L22.3621 17.6847ZM16.8807 21.9902C16.6902 22.1901 16.698 22.5066 16.8979 22.6971C17.0979 22.8875 17.4144 22.8798 17.6048 22.6798L16.8807 21.9902ZM22.5 17.3398C22.5 17.0637 22.2762 16.8398 22 16.8398C21.7239 16.8398 21.5 17.0637 21.5 17.3398L22.5 17.3398ZM21.5 30.6602C21.5 30.9364 21.7239 31.1602 22 31.1602C22.2762 31.1602 22.5 30.9364 22.5 30.6602L21.5 30.6602ZM27.1194 21.9902L22.3621 16.995L21.638 17.6847L26.3953 22.6798L27.1194 21.9902ZM21.638 16.995L16.8807 21.9902L17.6048 22.6798L22.3621 17.6847L21.638 16.995ZM21.5 17.3398L21.5 30.6602L22.5 30.6602L22.5 17.3398L21.5 17.3398Z" fill="white"/>
</g>
<defs>
<filter id="filter0_d_3_845" x="0.742676" y="0.839844" width="42.5146" height="46.3203" filterUnits="userSpaceOnUse" color-interpolation-filters="sRGB">
<feFlood flood-opacity="0" result="BackgroundImageFix"/>
<feColorMatrix in="SourceAlpha" type="matrix" values="0 0 0 0 0 0 0 0 0 0 0 0 0 0 0 0 0 0 127 0" result="hardAlpha"/>
<feOffset/>
<feGaussianBlur stdDeviation="8"/>
<feComposite in2="hardAlpha" operator="out"/>
<feColorMatrix type="matrix" values="0 0 0 0 1 0 0 0 0 1 0 0 0 0 1 0 0 0 1 0"/>
<feBlend mode="normal" in2="BackgroundImageFix" result="effect1_dropShadow_3_845"/>
<feBlend mode="normal" in="SourceGraphic" in2="effect1_dropShadow_3_845" result="shape"/>
</filter>
</defs>
</svg>
