<svg width="1920" height="1080" viewBox="0 0 1920 1080" fill="none" xmlns="http://www.w3.org/2000/svg">
<rect width="1920" height="1080" fill="url(#paint0_radial_124_27)"/>
<circle opacity="0.5" cx="650" cy="549" r="1" fill="white"/>
<circle opacity="0.5" cx="480" cy="928" r="1" fill="white"/>
<circle opacity="0.5" cx="1690" cy="855" r="1" fill="white"/>
<circle opacity="0.5" cx="700" cy="235" r="1" fill="white"/>
<circle opacity="0.5" cx="598" cy="351" r="1" fill="white"/>
<circle opacity="0.5" cx="1345" cy="374" r="1" fill="white"/>
<circle opacity="0.5" cx="1187" cy="197" r="2" fill="white"/>
<circle opacity="0.5" cx="782" cy="152" r="1" fill="white"/>
<circle opacity="0.5" cx="990" cy="237" r="1" fill="white"/>
<circle opacity="0.5" cx="671" cy="638" r="1" fill="white"/>
<circle opacity="0.5" cx="217" cy="329" r="1" fill="white"/>
<circle opacity="0.5" cx="314" cy="617" r="2" fill="white"/>
<circle opacity="0.5" cx="1490" cy="437" r="1" fill="white"/>
<circle opacity="0.5" cx="1261" cy="657" r="1" fill="white"/>
<circle opacity="0.5" cx="1145" cy="606" r="1" fill="white"/>
<circle opacity="0.5" cx="1169" cy="561" r="1" fill="white"/>
<circle opacity="0.5" cx="1097" cy="589" r="1" fill="white"/>
<circle opacity="0.5" cx="759" cy="658" r="1" fill="white"/>
<circle opacity="0.5" cx="792" cy="541" r="1" fill="white"/>
<circle opacity="0.5" cx="807" cy="570" r="1" fill="white"/>
<circle opacity="0.5" cx="550" cy="326" r="2" fill="white"/>
<circle opacity="0.5" cx="385" cy="424" r="1" fill="white"/>
<circle opacity="0.5" cx="259" cy="505" r="1" fill="white"/>
<circle opacity="0.5" cx="375" cy="450" r="1" fill="white"/>
<circle opacity="0.5" cx="1739" cy="373" r="1" fill="white"/>
<circle opacity="0.5" cx="120" cy="531" r="1" fill="white"/>
<circle opacity="0.5" cx="1782" cy="301" r="1" fill="white"/>
<circle opacity="0.5" cx="257" cy="288" r="1" fill="white"/>
<circle opacity="0.5" cx="171" cy="290" r="1" fill="white"/>
<circle opacity="0.5" cx="511" cy="196" r="1" fill="white"/>
<circle opacity="0.5" cx="1651" cy="281" r="1" fill="white"/>
<circle opacity="0.5" cx="1419" cy="570" r="1" fill="white"/>
<circle opacity="0.5" cx="1533" cy="660" r="1" fill="white"/>
<circle opacity="0.5" cx="1361" cy="328" r="2" fill="white"/>
<circle opacity="0.5" cx="1492" cy="169" r="1" fill="white"/>
<circle opacity="0.5" cx="1784" cy="513" r="1" fill="white"/>
<circle opacity="0.5" cx="1748" cy="528" r="1" fill="white"/>
<circle opacity="0.5" cx="1800" cy="557" r="1" fill="white"/>
<defs>
<radialGradient id="paint0_radial_124_27" cx="0" cy="0" r="1" gradientUnits="userSpaceOnUse" gradientTransform="translate(960 540) rotate(90) scale(540 960)">
<stop stop-color="#1A0733"/>
<stop offset="1" stop-color="#080011"/>
</radialGradient>
</defs>
</svg>
