<svg width="1682" height="778" viewBox="0 0 1682 778" fill="none" xmlns="http://www.w3.org/2000/svg">
<circle opacity="0.5" cx="531" cy="398" r="1" fill="white"/>
<circle opacity="0.5" cx="361" cy="777" r="1" fill="white"/>
<circle opacity="0.5" cx="1571" cy="704" r="1" fill="white"/>
<circle opacity="0.5" cx="581" cy="84" r="1" fill="white"/>
<circle opacity="0.5" cx="479" cy="200" r="1" fill="white"/>
<circle opacity="0.5" cx="1226" cy="223" r="1" fill="white"/>
<circle opacity="0.5" cx="1068" cy="46" r="2" fill="white"/>
<circle opacity="0.5" cx="663" cy="1" r="1" fill="white"/>
<circle opacity="0.5" cx="871" cy="86" r="1" fill="white"/>
<circle opacity="0.5" cx="552" cy="487" r="1" fill="white"/>
<circle opacity="0.5" cx="98" cy="178" r="1" fill="white"/>
<circle opacity="0.5" cx="195" cy="466" r="2" fill="white"/>
<circle opacity="0.5" cx="1371" cy="286" r="1" fill="white"/>
<circle opacity="0.5" cx="1142" cy="506" r="1" fill="white"/>
<circle opacity="0.5" cx="1026" cy="455" r="1" fill="white"/>
<circle opacity="0.5" cx="1050" cy="410" r="1" fill="white"/>
<circle opacity="0.5" cx="978" cy="438" r="1" fill="white"/>
<circle opacity="0.5" cx="640" cy="507" r="1" fill="white"/>
<circle opacity="0.5" cx="673" cy="390" r="1" fill="white"/>
<circle opacity="0.5" cx="688" cy="419" r="1" fill="white"/>
<circle opacity="0.5" cx="431" cy="175" r="2" fill="white"/>
<circle opacity="0.5" cx="266" cy="273" r="1" fill="white"/>
<circle opacity="0.5" cx="140" cy="354" r="1" fill="white"/>
<circle opacity="0.5" cx="256" cy="299" r="1" fill="white"/>
<circle opacity="0.5" cx="1620" cy="222" r="1" fill="white"/>
<circle opacity="0.5" cx="1" cy="380" r="1" fill="white"/>
<circle opacity="0.5" cx="1663" cy="150" r="1" fill="white"/>
<circle opacity="0.5" cx="138" cy="137" r="1" fill="white"/>
<circle opacity="0.5" cx="52" cy="139" r="1" fill="white"/>
<circle opacity="0.5" cx="392" cy="45" r="1" fill="white"/>
<circle opacity="0.5" cx="1532" cy="130" r="1" fill="white"/>
<circle opacity="0.5" cx="1300" cy="419" r="1" fill="white"/>
<circle opacity="0.5" cx="1414" cy="509" r="1" fill="white"/>
<circle opacity="0.5" cx="1242" cy="177" r="2" fill="white"/>
<circle opacity="0.5" cx="1373" cy="18" r="1" fill="white"/>
<circle opacity="0.5" cx="1665" cy="362" r="1" fill="white"/>
<circle opacity="0.5" cx="1629" cy="377" r="1" fill="white"/>
<circle opacity="0.5" cx="1681" cy="406" r="1" fill="white"/>
</svg>
