<svg width="70" height="55" viewBox="0 0 70 55" fill="none" xmlns="http://www.w3.org/2000/svg">
<path fill-rule="evenodd" clip-rule="evenodd" d="M12.1698 47.7557H49.1591C54.5776 47.7557 58.9899 43.3494 57.3488 38.1854C54.8276 30.2522 48.2152 20.2695 30.9006 20.2695C13.7391 20.2695 6.82847 30.0764 4.04572 37.9745C2.21041 43.1834 6.64692 47.7557 12.1698 47.7557ZM24.3923 33.9765C25.2208 33.9765 25.8923 34.648 25.8923 35.4765V41.9094C25.8923 42.7378 25.2208 43.4094 24.3923 43.4094C23.5639 43.4094 22.8923 42.7378 22.8923 41.9094V35.4765C22.8923 34.648 23.5639 33.9765 24.3923 33.9765ZM48.1151 35.4765C48.1151 34.648 47.4435 33.9765 46.6151 33.9765C45.7867 33.9765 45.1151 34.648 45.1151 35.4765V41.9094C45.1151 42.7378 45.7867 43.4094 46.6151 43.4094C47.4435 43.4094 48.1151 42.7378 48.1151 41.9094V35.4765Z" fill="url(#paint0_linear_3_898)"/>
<path d="M23.1519 19.9062L12.8137 2.00012" stroke="#9746FF" stroke-width="3" stroke-linecap="round"/>
<path d="M48.2524 20.4863L58.5905 2.5802" stroke="#9746FF" stroke-width="3" stroke-linecap="round"/>
<path d="M11 52.731H58.7989C64.2219 52.731 68.6092 48.3578 67.3253 43.089C64.86 32.9711 57.4467 18.5195 35.2115 18.5195C13.129 18.5195 5.3001 32.7732 2.52451 42.8798C1.06193 48.2055 5.47718 52.731 11 52.731Z" stroke="url(#paint1_linear_3_898)" stroke-width="3"/>
<defs>
<linearGradient id="paint0_linear_3_898" x1="36.2731" y1="53.8962" x2="36.2731" y2="17.9303" gradientUnits="userSpaceOnUse">
<stop stop-color="white"/>
<stop offset="1" stop-color="#9746FF"/>
</linearGradient>
<linearGradient id="paint1_linear_3_898" x1="34.9191" y1="53.0223" x2="42.7271" y2="20.2387" gradientUnits="userSpaceOnUse">
<stop stop-color="white"/>
<stop offset="1" stop-color="#9746FF"/>
</linearGradient>
</defs>
</svg>
