<svg width="56" height="55" viewBox="0 0 56 55" fill="none" xmlns="http://www.w3.org/2000/svg">
<ellipse cx="30" cy="16.5" rx="10" ry="12.5" fill="url(#paint0_linear_96_30)"/>
<path d="M22.0396 37.7251C21.4814 37.4148 20.813 37.3329 20.2262 37.5849C14.6199 39.9921 10.547 44.1394 9.35721 49.0283C8.9654 50.6381 10.3431 52 12 52H51C52.6569 52 54.0346 50.6381 53.6428 49.0282C52.4155 43.9855 48.1207 39.7315 42.2396 37.3627C41.6453 37.1233 40.9768 37.2213 40.4243 37.5457C37.856 39.0533 34.6075 39.9537 31.0749 39.9537C27.6848 39.9537 24.5563 39.1245 22.0396 37.7251Z" fill="url(#paint1_linear_96_30)"/>
<circle cx="27.5" cy="15.5" r="13.5" stroke="url(#paint2_linear_96_30)" stroke-width="3"/>
<path d="M17.2294 31.5751C16.5705 31.0834 15.6861 30.9621 14.9733 31.3718C8.60109 35.0342 3.9473 40.7601 2.48559 48.0305C1.9413 50.7378 4.23858 53 7 53H49.4011C52.1626 53 54.4594 50.738 53.9162 48.0305C52.4084 40.5152 47.4991 34.63 40.809 31.0207C40.0856 30.6304 39.205 30.7757 38.5597 31.2849C35.5742 33.6412 31.8041 35.0474 27.7055 35.0474C23.7781 35.0474 20.1523 33.7562 17.2294 31.5751Z" stroke="url(#paint3_linear_96_30)" stroke-width="3"/>
<defs>
<linearGradient id="paint0_linear_96_30" x1="21.0328" y1="4.79647" x2="44.2688" y2="23.773" gradientUnits="userSpaceOnUse">
<stop stop-color="white"/>
<stop offset="1" stop-color="#9746FF"/>
</linearGradient>
<linearGradient id="paint1_linear_96_30" x1="11.3238" y1="37.4779" x2="19.7204" y2="63.1931" gradientUnits="userSpaceOnUse">
<stop stop-color="white"/>
<stop offset="1" stop-color="#9746FF"/>
</linearGradient>
<linearGradient id="paint2_linear_96_30" x1="15.3943" y1="2.86019" x2="41" y2="29" gradientUnits="userSpaceOnUse">
<stop stop-color="white"/>
<stop offset="1" stop-color="#9746FF"/>
</linearGradient>
<linearGradient id="paint3_linear_96_30" x1="4.70599" y1="31.1204" x2="20.0758" y2="67.5013" gradientUnits="userSpaceOnUse">
<stop stop-color="white"/>
<stop offset="1" stop-color="#9746FF"/>
</linearGradient>
</defs>
</svg>
